<svg width="24" height="24" viewBox="0 0 24 24" fill="none" xmlns="http://www.w3.org/2000/svg">
<path d="M5.83584 4.09497C6.33084 4.09497 7.21884 4.24797 7.21884 5.46672C7.21884 6.68547 6.33984 7.15422 5.83584 7.15422C5.33184 7.15422 4.55859 6.67572 4.55859 5.46672C4.55859 4.25697 5.40834 4.09497 5.83584 4.09497ZM3.11709 5.62497C3.61209 5.62497 4.50009 5.77722 4.50009 6.99597C4.50009 8.21472 3.62109 8.68347 3.11709 8.68347C2.61309 8.68347 1.83984 8.20572 1.83984 6.99597C1.83984 5.78697 2.68959 5.62497 3.11709 5.62497ZM10.5001 5.46672C10.5001 4.24797 9.61209 4.09572 9.11709 4.09572C8.68959 4.09572 7.83984 4.25697 7.83984 5.46672C7.83984 6.67572 8.61309 7.15422 9.11709 7.15422C9.62109 7.15422 10.5001 6.68547 10.5001 5.46672ZM11.7773 5.62497C12.2723 5.62497 13.1603 5.77722 13.1603 6.99597C13.1603 8.21472 12.2813 8.68347 11.7773 8.68347C11.2733 8.68347 10.5001 8.20572 10.5001 6.99597C10.5001 5.78697 11.3498 5.62497 11.7773 5.62497ZM11.2381 11.6017C11.2381 9.41022 9.82059 7.51197 7.50009 7.51197C5.17959 7.51197 3.78534 9.36297 3.78534 11.6017C3.78534 13.4647 6.00609 13.4647 7.49484 13.4647H7.50009C9.15234 13.4647 11.2381 13.4062 11.2381 11.6017ZM12.1171 14.6602C12.6121 14.6602 13.5001 14.8125 13.5001 16.0312C13.5001 17.25 12.6211 17.7187 12.1171 17.7187C11.6131 17.7187 10.8398 17.2402 10.8398 16.0312C10.8398 14.8215 11.6896 14.6602 12.1171 14.6602ZM16.2188 14.502C16.2188 13.2832 15.3308 13.131 14.8358 13.131C14.4083 13.131 13.5586 13.2922 13.5586 14.502C13.5586 15.711 14.3318 16.1895 14.8358 16.1895C15.3398 16.1895 16.2188 15.7207 16.2188 14.502ZM18.1171 13.131C18.6121 13.131 19.5001 13.2832 19.5001 14.502C19.5001 15.7207 18.6211 16.1895 18.1171 16.1895C17.6131 16.1895 16.8398 15.711 16.8398 14.502C16.8398 13.2922 17.6896 13.131 18.1171 13.131ZM22.1603 16.0312C22.1603 14.8125 21.2723 14.6602 20.7773 14.6602C20.3498 14.6602 19.5001 14.8215 19.5001 16.0312C19.5001 17.2402 20.2733 17.7187 20.7773 17.7187C21.2813 17.7187 22.1603 17.25 22.1603 16.0312ZM16.5001 16.5472C18.8206 16.5472 20.2381 18.4447 20.2381 20.637C20.2381 22.4415 18.1531 22.5 16.5001 22.5H16.4941C15.0061 22.5 12.7853 22.5 12.7853 20.637C12.7853 18.3982 14.1803 16.5472 16.5001 16.5472Z" fill="#101828"/>
</svg>
